<mxfile host="app.diagrams.net" modified="2021-09-05T07:22:34.992Z" agent="5.0 (Windows NT 10.0; Win64; x64) AppleWebKit/537.36 (KHTML, like Gecko) Chrome/92.0.4515.159 Safari/537.36 Edg/92.0.902.78" etag="XuULz3x78PgcCF9tOgJg" version="15.0.6" type="github">
  <diagram id="4ci-W0JEJ2LvXCw6xr5Z" name="Page-1">
    <mxGraphModel dx="1390" dy="762" grid="1" gridSize="10" guides="1" tooltips="1" connect="1" arrows="1" fold="1" page="1" pageScale="1" pageWidth="827" pageHeight="1169" math="0" shadow="0">
      <root>
        <mxCell id="0" />
        <mxCell id="1" parent="0" />
        <mxCell id="N4T3TQVLg-3wJBO-MVEX-7" value="" style="edgeStyle=orthogonalEdgeStyle;rounded=0;orthogonalLoop=1;jettySize=auto;html=1;" edge="1" parent="1" source="N4T3TQVLg-3wJBO-MVEX-1" target="N4T3TQVLg-3wJBO-MVEX-6">
          <mxGeometry relative="1" as="geometry">
            <Array as="points">
              <mxPoint x="400" y="220" />
              <mxPoint x="260" y="220" />
            </Array>
          </mxGeometry>
        </mxCell>
        <mxCell id="N4T3TQVLg-3wJBO-MVEX-9" value="" style="edgeStyle=orthogonalEdgeStyle;rounded=0;orthogonalLoop=1;jettySize=auto;html=1;" edge="1" parent="1" source="N4T3TQVLg-3wJBO-MVEX-1" target="N4T3TQVLg-3wJBO-MVEX-8">
          <mxGeometry relative="1" as="geometry">
            <Array as="points">
              <mxPoint x="400" y="220" />
              <mxPoint x="560" y="220" />
            </Array>
          </mxGeometry>
        </mxCell>
        <mxCell id="N4T3TQVLg-3wJBO-MVEX-1" value="主程序开始" style="ellipse;whiteSpace=wrap;html=1;" vertex="1" parent="1">
          <mxGeometry x="340" y="80" width="120" height="80" as="geometry" />
        </mxCell>
        <mxCell id="N4T3TQVLg-3wJBO-MVEX-18" value="" style="edgeStyle=orthogonalEdgeStyle;rounded=0;orthogonalLoop=1;jettySize=auto;html=1;" edge="1" parent="1" source="N4T3TQVLg-3wJBO-MVEX-6" target="N4T3TQVLg-3wJBO-MVEX-17">
          <mxGeometry relative="1" as="geometry" />
        </mxCell>
        <mxCell id="N4T3TQVLg-3wJBO-MVEX-6" value="测量网络数据" style="whiteSpace=wrap;html=1;" vertex="1" parent="1">
          <mxGeometry x="200" y="290" width="120" height="60" as="geometry" />
        </mxCell>
        <mxCell id="N4T3TQVLg-3wJBO-MVEX-13" value="" style="edgeStyle=orthogonalEdgeStyle;rounded=0;orthogonalLoop=1;jettySize=auto;html=1;" edge="1" parent="1" source="N4T3TQVLg-3wJBO-MVEX-8" target="N4T3TQVLg-3wJBO-MVEX-12">
          <mxGeometry relative="1" as="geometry" />
        </mxCell>
        <mxCell id="N4T3TQVLg-3wJBO-MVEX-8" value="状态检测" style="whiteSpace=wrap;html=1;" vertex="1" parent="1">
          <mxGeometry x="500" y="270" width="120" height="60" as="geometry" />
        </mxCell>
        <mxCell id="N4T3TQVLg-3wJBO-MVEX-24" value="" style="edgeStyle=orthogonalEdgeStyle;rounded=0;orthogonalLoop=1;jettySize=auto;html=1;" edge="1" parent="1" source="N4T3TQVLg-3wJBO-MVEX-12">
          <mxGeometry relative="1" as="geometry">
            <mxPoint x="260" y="570" as="targetPoint" />
            <Array as="points">
              <mxPoint x="400" y="460" />
            </Array>
          </mxGeometry>
        </mxCell>
        <mxCell id="N4T3TQVLg-3wJBO-MVEX-12" value="ps -aux" style="whiteSpace=wrap;html=1;" vertex="1" parent="1">
          <mxGeometry x="500" y="410" width="120" height="60" as="geometry" />
        </mxCell>
        <mxCell id="N4T3TQVLg-3wJBO-MVEX-14" value="创建一个新的协程" style="text;html=1;strokeColor=none;fillColor=none;align=center;verticalAlign=middle;whiteSpace=wrap;rounded=0;" vertex="1" parent="1">
          <mxGeometry x="440" y="200" width="130" height="20" as="geometry" />
        </mxCell>
        <mxCell id="N4T3TQVLg-3wJBO-MVEX-15" style="edgeStyle=orthogonalEdgeStyle;rounded=0;orthogonalLoop=1;jettySize=auto;html=1;entryX=0.5;entryY=1;entryDx=0;entryDy=0;" edge="1" parent="1" source="N4T3TQVLg-3wJBO-MVEX-12" target="N4T3TQVLg-3wJBO-MVEX-12">
          <mxGeometry relative="1" as="geometry">
            <Array as="points">
              <mxPoint x="590" y="390" />
              <mxPoint x="640" y="390" />
              <mxPoint x="640" y="490" />
              <mxPoint x="560" y="490" />
            </Array>
          </mxGeometry>
        </mxCell>
        <mxCell id="N4T3TQVLg-3wJBO-MVEX-20" value="" style="edgeStyle=orthogonalEdgeStyle;rounded=0;orthogonalLoop=1;jettySize=auto;html=1;" edge="1" parent="1" source="N4T3TQVLg-3wJBO-MVEX-17" target="N4T3TQVLg-3wJBO-MVEX-19">
          <mxGeometry relative="1" as="geometry" />
        </mxCell>
        <mxCell id="N4T3TQVLg-3wJBO-MVEX-17" value="MeasureAgent结束" style="ellipse;whiteSpace=wrap;html=1;" vertex="1" parent="1">
          <mxGeometry x="200" y="410" width="120" height="60" as="geometry" />
        </mxCell>
        <mxCell id="N4T3TQVLg-3wJBO-MVEX-19" value="主程序结束" style="ellipse;whiteSpace=wrap;html=1;" vertex="1" parent="1">
          <mxGeometry x="200" y="620" width="120" height="60" as="geometry" />
        </mxCell>
        <mxCell id="N4T3TQVLg-3wJBO-MVEX-25" value="MeasureAgent结束" style="rounded=0;whiteSpace=wrap;html=1;" vertex="1" parent="1">
          <mxGeometry x="200" y="410" width="120" height="60" as="geometry" />
        </mxCell>
        <mxCell id="N4T3TQVLg-3wJBO-MVEX-26" value="被迫终止" style="text;html=1;strokeColor=none;fillColor=none;align=center;verticalAlign=middle;whiteSpace=wrap;rounded=0;" vertex="1" parent="1">
          <mxGeometry x="340" y="550" width="60" height="20" as="geometry" />
        </mxCell>
      </root>
    </mxGraphModel>
  </diagram>
</mxfile>
